<svg width="33" height="30" viewBox="0 0 33 30" fill="none" xmlns="http://www.w3.org/2000/svg">
<path d="M30.816 7.22443H7.56091L5.99943 1.63201C5.83186 1.03171 5.28225 0.616211 4.65564 0.616211H1.39462C0.624369 0.616211 0 1.23711 0 2.00306C0 2.76902 0.624369 3.38992 1.39462 3.38992H3.59553L9.73783 25.3884C9.9054 25.9887 10.455 26.4042 11.0816 26.4042H11.4013C11.3474 26.6029 11.3183 26.8115 11.3183 27.027C11.3183 28.3463 12.3937 29.4157 13.7204 29.4157C15.047 29.4157 16.1225 28.3463 16.1225 27.027C16.1225 26.8115 16.0933 26.6029 16.0395 26.4042H18.9986C18.9447 26.6029 18.9156 26.8115 18.9156 27.027C18.9156 28.3463 19.991 29.4157 21.3177 29.4157C22.6443 29.4157 23.7198 28.3463 23.7198 27.027C23.7198 26.8115 23.6906 26.6029 23.6368 26.4042H24.8534C25.6236 26.4042 26.248 25.7833 26.248 25.0173C26.248 24.2514 25.6236 23.6305 24.8534 23.6305H12.1417L11.5438 21.489H25.9298C26.7712 21.489 27.5076 20.9267 27.7247 20.1183L30.4433 9.99821H30.8159C31.5862 9.99821 32.2105 9.37731 32.2105 8.61135C32.2105 7.84539 31.5862 7.22443 30.816 7.22443ZM14.7663 17.6886C14.7663 18.263 14.298 18.7287 13.7204 18.7287C13.1427 18.7287 12.6744 18.263 12.6744 17.6886V11.7855C12.6744 11.2111 13.1427 10.7454 13.7204 10.7454C14.298 10.7454 14.7663 11.2111 14.7663 11.7855V17.6886ZM19.766 17.6886C19.766 18.263 19.2977 18.7287 18.7201 18.7287C18.1424 18.7287 17.6741 18.263 17.6741 17.6886V11.7855C17.6741 11.2111 18.1424 10.7454 18.7201 10.7454C19.2977 10.7454 19.766 11.2111 19.766 11.7855V17.6886ZM24.7657 17.6886C24.7657 18.263 24.2973 18.7287 23.7197 18.7287C23.142 18.7287 22.6737 18.263 22.6737 17.6886V11.7855C22.6737 11.2111 23.142 10.7454 23.7197 10.7454C24.2973 10.7454 24.7657 11.2111 24.7657 11.7855V17.6886Z" fill="#7CDD00"/>
</svg>
