<svg width="32" height="32" viewBox="0 0 32 32" fill="none" xmlns="http://www.w3.org/2000/svg">
<path d="M29.4562 0.730957H2.54696C1.13828 0.730957 0 1.86816 0 3.27471V28.7261C0 30.1284 1.13828 31.2688 2.54696 31.2688H29.4562C30.8585 31.2688 32 30.1295 32 28.7261V3.27471C31.9989 1.86816 30.8574 0.730957 29.4562 0.730957ZM21.5097 9.79762C20.8481 9.41072 20.3233 9.10504 19.6639 9.10504C19.0183 9.10504 18.4668 9.26643 18.1846 9.5379C17.9025 9.80724 17.7625 10.3288 17.7625 11.0994V12.2398H21.2136L20.4665 15.4121H17.7625V25.9526H13.4274V15.4121H11.4041V12.2398H13.4295V11.0289C13.4295 9.7538 13.5824 8.99068 13.8838 8.36115C14.1841 7.73376 14.7666 7.03476 15.5768 6.63931C16.3858 6.24492 17.5829 6.04612 18.8216 6.04612C20.0914 6.04612 21.0832 6.46937 22.2995 6.81032L21.5097 9.79762Z" fill="black"/>
</svg>
